<?xml version="1.0" standalone="no"?>
<!DOCTYPE svg PUBLIC "-//W3C//DTD SVG 20010904//EN"
 "http://www.w3.org/TR/2001/REC-SVG-20010904/DTD/svg10.dtd">
<svg version="1.0" xmlns="http://www.w3.org/2000/svg"
 width="1024.000000pt" height="1024.000000pt" viewBox="0 0 1024.000000 1024.000000"
 preserveAspectRatio="xMidYMid meet">
<metadata>
Created by potrace 1.14, written by Peter Selinger 2001-2017
</metadata>
<g transform="translate(0.000000,1024.000000) scale(0.100000,-0.100000)"
fill="#000000" stroke="none">
<path d="M0 10215 l0 -25 466 0 467 0 -28 -27 c-69 -69 -176 -252 -206 -352
-8 -25 -32 -65 -59 -95 -26 -28 -73 -89 -105 -136 -32 -47 -75 -105 -95 -130
-21 -25 -47 -65 -60 -89 -12 -24 -25 -40 -28 -35 -4 5 -32 9 -62 9 -30 1 -107
2 -170 4 l-115 3 -3 -532 c-2 -471 0 -532 13 -526 8 3 15 1 15 -4 0 -19 21
-10 30 13 9 22 9 22 9 -3 1 -21 -6 -29 -34 -39 -26 -9 -35 -18 -35 -35 0 -21
6 -20 118 37 87 44 111 53 92 34 -14 -13 -28 -23 -31 -21 -4 2 -20 -3 -35 -11
-16 -8 -25 -15 -20 -15 5 0 3 -7 -4 -15 -11 -13 -10 -14 5 -9 12 5 16 4 12 -3
-5 -7 1 -10 15 -8 13 1 46 5 73 9 l50 6 -45 -15 c-25 -9 -54 -16 -65 -17 -11
-1 -25 -7 -32 -14 -6 -6 -39 -17 -72 -24 -40 -8 -61 -18 -61 -27 0 -11 10 -13
45 -8 l44 7 24 -54 c13 -30 27 -86 31 -124 11 -112 26 -176 55 -229 19 -37 25
-58 20 -80 -21 -96 -1 -184 63 -281 31 -48 48 -84 53 -119 4 -27 31 -101 61
-163 30 -62 54 -119 54 -127 0 -9 16 -56 36 -107 33 -83 35 -94 25 -129 -16
-53 -138 -307 -166 -344 -12 -16 -30 -46 -40 -65 -10 -19 -33 -54 -52 -78 -20
-24 -33 -45 -31 -48 6 -6 88 99 88 113 0 5 9 18 20 28 11 10 20 22 20 27 0 5
12 27 27 51 32 48 39 62 98 177 24 47 53 110 65 140 12 30 32 77 44 105 13 27
40 103 60 168 23 73 42 117 50 117 11 0 9 -9 -5 -36 -10 -21 -15 -42 -12 -48
4 -6 11 4 15 22 5 18 13 32 19 32 6 0 7 -4 4 -10 -3 -5 -1 -10 4 -10 6 0 11 4
11 10 0 5 7 7 17 3 14 -5 13 -8 -5 -14 -13 -5 -22 -17 -22 -29 0 -13 -7 -20
-20 -20 -11 0 -20 -5 -20 -11 0 -5 -4 -8 -9 -5 -4 3 -6 -6 -3 -20 3 -16 8 -22
14 -16 5 5 18 7 28 5 17 -5 19 -15 16 -95 -2 -71 1 -91 13 -98 22 -12 57 35
41 55 -9 11 -9 15 -1 15 6 0 11 -5 11 -11 0 -5 4 -7 10 -4 19 12 10 -6 -55
-106 -101 -156 -184 -254 -387 -463 -67 -67 -85 -91 -51 -65 10 7 95 91 189
186 94 95 176 173 182 173 5 0 17 -17 25 -38 9 -21 36 -63 61 -92 25 -29 51
-69 57 -89 7 -20 25 -53 42 -74 25 -32 32 -53 43 -138 7 -54 20 -113 29 -131
9 -18 20 -70 25 -115 5 -45 16 -93 25 -106 9 -14 20 -65 26 -118 7 -68 19
-118 45 -181 25 -60 33 -94 28 -110 -13 -43 -6 -146 14 -185 13 -24 17 -45 12
-58 -8 -21 -19 -191 -20 -287 l0 -58 -52 0 c-120 0 -301 50 -405 111 -106 62
-238 211 -270 304 -15 46 -43 61 -43 24 0 -21 42 -128 82 -208 41 -80 166
-210 293 -304 192 -140 231 -164 316 -192 67 -23 79 -30 72 -44 -4 -9 -8 -70
-9 -137 -1 -66 -6 -136 -12 -155 -6 -19 -14 -57 -17 -85 -5 -40 -18 -67 -57
-120 -27 -38 -68 -107 -90 -154 -22 -47 -42 -87 -44 -89 -15 -17 -327 122
-406 182 -24 18 -63 45 -87 62 -24 16 -70 53 -103 82 -32 30 -63 51 -69 48
-13 -9 4 -36 48 -76 23 -21 58 -74 87 -132 27 -53 72 -122 99 -152 50 -56 245
-194 325 -230 40 -17 43 -21 38 -48 -3 -16 -6 -47 -6 -67 0 -34 -4 -41 -42
-63 -104 -61 -312 -253 -384 -354 -86 -121 -196 -363 -230 -508 -21 -86 1 -90
39 -8 53 116 301 433 339 433 4 0 -8 -33 -26 -72 -66 -146 -89 -251 -110 -497
-9 -117 -16 -156 -27 -159 -25 -8 -88 -81 -113 -131 -15 -28 -41 -59 -65 -76
-48 -33 -125 -144 -136 -195 -4 -19 -11 -40 -16 -46 -5 -6 -8 -345 -7 -789 l3
-778 62 -46 c34 -25 62 -49 62 -53 1 -5 -28 -8 -64 -8 -51 0 -65 -3 -65 -15 0
-13 576 -15 5120 -15 l5120 0 0 5120 0 5120 -5120 0 -5120 0 0 -25z m973 -32
c-7 -2 -19 -2 -25 0 -7 3 -2 5 12 5 14 0 19 -2 13 -5z m1342 -533 c-20 -22
-35 -26 -35 -10 0 6 10 15 23 20 32 13 32 12 12 -10z m1750 -97 c9 -22 34
-368 35 -475 0 -84 -13 -102 -29 -40 -6 20 -18 64 -27 97 -20 75 -31 367 -15
408 12 31 26 35 36 10z m-312 -120 c-7 -65 -16 -273 -19 -463 -7 -381 1 -513
56 -901 50 -358 167 -846 245 -1019 18 -41 45 -106 60 -145 34 -85 193 -388
245 -466 21 -31 48 -76 60 -100 33 -65 146 -232 175 -259 33 -31 43 -19 16 18
-44 63 -187 407 -240 582 -62 203 -141 578 -165 785 -21 180 -54 695 -44 695
4 0 27 -62 52 -137 45 -139 102 -284 194 -490 155 -348 376 -688 696 -1070 69
-83 126 -163 159 -224 54 -102 250 -395 349 -522 33 -44 90 -111 127 -149 65
-70 254 -228 272 -228 18 0 8 26 -36 90 -45 66 -121 250 -145 351 -7 30 -23
89 -36 131 -14 42 -40 152 -59 245 -18 92 -43 204 -54 248 -12 44 -21 88 -21
98 0 16 2 16 31 2 17 -9 40 -15 52 -13 18 2 10 10 -35 36 -32 18 -58 34 -58
35 0 31 -127 613 -139 636 -9 17 -24 87 -17 80 2 -2 79 -110 172 -239 92 -129
201 -275 242 -325 49 -59 70 -91 60 -93 -11 -2 -155 32 -265 64 -44 12 -24
-24 35 -64 86 -58 203 -111 296 -134 83 -20 168 -70 149 -88 -4 -5 -53 -25
-108 -45 -152 -57 -219 -94 -202 -112 3 -3 39 11 79 30 122 57 255 100 277 88
10 -6 49 -43 85 -83 l66 -73 -83 -7 c-135 -12 -211 -31 -216 -53 -2 -11 -11
-25 -20 -31 -24 -18 -9 -25 30 -13 91 27 103 19 36 -23 -50 -32 -83 -65 -74
-75 4 -3 51 3 104 15 187 41 228 45 443 46 220 1 254 -3 391 -45 108 -33 142
-85 105 -158 -25 -48 -122 -111 -171 -111 -25 0 -105 68 -105 90 0 6 -4 10
-10 10 -13 0 -13 -147 -1 -203 36 -158 46 -197 62 -234 11 -26 14 -45 8 -48
-5 -4 -34 -1 -65 5 -90 19 -82 -8 11 -38 148 -47 326 -82 539 -106 130 -15
146 -21 146 -59 0 -17 26 -35 36 -24 3 2 -2 23 -11 45 -13 31 -24 42 -46 47
-16 4 -34 15 -39 26 -6 10 -17 19 -25 19 -7 0 -27 8 -44 18 -24 13 -31 23 -29
41 6 53 68 52 121 -1 29 -29 31 -29 44 -12 21 29 93 175 93 189 0 7 9 32 20
56 11 24 20 61 20 81 0 20 4 39 9 42 4 3 28 -7 52 -22 24 -15 56 -33 71 -41
41 -21 190 -153 207 -183 16 -28 15 -31 -41 -100 -12 -15 -19 -30 -16 -34 7
-7 99 26 161 57 64 33 97 61 97 82 0 19 -104 128 -154 160 -15 11 -24 22 -20
26 11 9 85 31 105 31 17 0 54 -69 107 -200 22 -52 51 -122 64 -155 26 -62 46
-109 104 -255 19 -47 44 -107 56 -135 11 -27 38 -97 58 -155 20 -58 42 -115
48 -127 7 -12 12 -28 12 -35 0 -17 -234 -258 -360 -369 -96 -86 -217 -183
-367 -298 -135 -102 -378 -206 -528 -226 -79 -10 -96 -15 -90 -25 10 -17 69
-11 223 20 168 33 231 55 415 144 262 125 525 299 770 508 61 52 87 68 87 53
0 -3 -20 -61 -45 -128 -141 -377 -388 -756 -652 -997 -114 -103 -167 -137
-303 -191 -214 -85 -514 -144 -725 -142 -153 2 -281 31 -396 89 -72 36 -96 39
-62 9 38 -34 184 -124 254 -158 99 -47 247 -92 388 -118 97 -18 141 -20 266
-16 83 3 160 8 173 12 12 4 22 3 22 -1 0 -14 -116 -153 -198 -238 -148 -151
-376 -324 -511 -387 -28 -13 -50 -28 -51 -33 -1 -19 187 26 335 81 79 29 401
171 485 213 89 45 348 207 433 271 42 32 77 56 77 54 0 -3 -17 -42 -38 -87
-24 -51 -65 -114 -106 -163 -37 -44 -109 -142 -159 -217 l-91 -138 -42 0 c-24
0 -89 -9 -146 -19 -57 -11 -141 -23 -188 -26 -47 -4 -116 -13 -155 -21 -45 -9
-118 -14 -205 -12 -74 1 -184 -4 -245 -10 -60 -7 -198 -18 -306 -26 -148 -11
-208 -19 -245 -34 -53 -22 -223 -38 -494 -46 -114 -4 -158 -9 -205 -26 -35
-13 -114 -27 -190 -35 -129 -13 -195 -23 -330 -50 -81 -16 -374 -45 -455 -45
-31 0 -82 -7 -113 -15 -32 -8 -95 -15 -139 -15 -52 0 -108 -7 -154 -20 -42
-12 -140 -26 -234 -33 l-161 -13 -47 41 c-26 22 -150 144 -276 272 -191 193
-226 233 -210 239 69 22 194 99 194 118 0 11 -8 12 -37 5 -56 -13 -234 -23
-276 -15 -43 8 -161 110 -349 302 -172 177 -235 250 -310 362 -220 329 -325
609 -369 986 -23 203 -28 319 -39 1081 -7 455 -12 598 -25 665 -8 47 -29 166
-45 265 l-29 180 31 175 c17 96 33 189 37 207 l6 32 66 -42 c66 -43 158 -91
192 -101 9 -3 17 -14 17 -24 0 -36 129 -212 155 -212 8 0 4 17 -11 48 -13 26
-24 64 -24 84 0 34 3 38 53 62 28 13 66 27 83 31 l32 6 26 -118 c47 -209 58
-219 68 -61 6 107 16 200 22 206 2 1 62 5 135 9 145 7 228 -6 258 -40 21 -22
22 -100 3 -138 -20 -39 -82 -99 -103 -99 -26 0 -73 26 -80 45 -9 22 -40 20
-33 -2 3 -10 8 -31 12 -48 15 -68 40 -133 71 -187 18 -31 33 -61 33 -66 0 -6
16 -31 35 -56 19 -26 35 -48 35 -51 0 -2 -19 -5 -42 -7 -41 -3 -42 -4 -20 -16
49 -28 352 -56 570 -53 44 1 58 17 20 23 -18 2 -23 9 -21 29 1 23 -6 30 -52
52 -56 28 -73 51 -54 73 17 20 39 17 84 -11 49 -30 102 -34 89 -7 -5 9 -9 77
-10 149 -2 153 -10 148 95 50 84 -78 101 -77 56 2 -18 30 -22 47 -15 56 23 28
-132 172 -254 235 -28 15 -43 36 -33 46 3 3 27 -4 52 -15 55 -24 58 -25 53
-10 -2 6 -30 25 -63 42 -48 26 -61 37 -63 60 -2 15 0 27 4 27 4 0 45 -21 92
-46 46 -25 87 -43 89 -40 12 12 -22 36 -107 77 -77 37 -89 46 -93 72 -4 32 -3
33 72 42 l53 6 50 -53 c43 -47 47 -54 32 -65 -15 -11 -14 -15 9 -45 14 -18 41
-65 60 -104 19 -38 42 -76 51 -83 29 -25 18 19 -29 113 -25 49 -45 90 -45 92
0 2 7 1 17 -3 28 -11 -15 53 -82 123 -60 61 -62 62 -127 69 -50 5 -69 12 -72
24 -15 48 -29 338 -28 566 2 388 22 675 73 1015 42 287 107 664 118 692 6 12
24 88 41 168 17 80 39 172 49 205 11 33 24 81 31 108 21 81 26 52 13 -70z
m-1553 94 c0 -2 -12 -14 -27 -28 l-28 -24 24 28 c23 25 31 32 31 24z m932
-113 c-67 -134 -111 -255 -127 -350 -9 -50 -20 -106 -25 -125 -6 -19 -10 -42
-10 -53 0 -15 3 -16 15 -6 9 7 23 29 32 49 23 50 197 313 222 335 33 30 26 0
-17 -75 -21 -35 -58 -105 -81 -154 -64 -135 -62 -131 -136 -270 -124 -237
-170 -305 -205 -305 -35 0 26 339 85 475 7 17 24 62 38 100 49 136 182 421
215 458 9 10 19 14 25 8 5 -5 -8 -41 -31 -87z m1368 37 c5 -11 15 -53 20 -94
6 -41 26 -132 46 -203 19 -71 46 -173 59 -228 31 -121 45 -149 44 -86 -2 101
33 300 53 300 11 0 60 -107 103 -225 63 -174 85 -210 85 -138 0 90 21 318 30
327 18 18 24 -4 21 -92 -2 -100 12 -202 75 -555 25 -139 12 -143 -68 -26 -88
131 -144 230 -196 349 -9 21 -11 16 -11 -40 -2 -117 21 -383 41 -495 30 -166
31 -175 21 -175 -12 0 -68 94 -94 160 -39 101 -81 215 -90 250 -6 19 -14 44
-19 55 -10 23 -93 361 -109 445 -11 61 -27 218 -37 383 -5 75 -3 107 4 107 6
0 16 -9 22 -19z m-2387 -35 c-10 -13 -20 -22 -22 -20 -4 4 29 44 36 44 2 0 -4
-11 -14 -24z m-89 -121 c-9 -14 -18 -25 -21 -25 -5 0 5 18 20 38 17 22 18 13
1 -13z m521 4 c-7 -21 -89 -164 -174 -301 -22 -37 -77 -137 -122 -223 -75
-145 -99 -178 -99 -139 0 24 87 238 132 324 65 127 151 257 203 310 53 54 70
62 60 29z m-990 1 c-3 -5 -12 -10 -18 -10 -7 0 -6 4 3 10 19 12 23 12 15 0z
m1068 -128 c3 -4 -2 -23 -12 -42 -25 -53 -45 -119 -38 -127 4 -3 45 31 92 76
46 46 89 80 95 76 11 -7 -15 -50 -46 -75 -9 -8 -20 -23 -25 -35 -5 -11 -13
-27 -19 -35 -72 -109 -187 -323 -285 -529 -44 -94 -66 -123 -81 -108 -10 9 75
315 115 415 21 54 42 108 46 122 11 36 92 199 118 237 22 33 32 39 40 25z
m1154 -24 c-3 -8 -6 -5 -6 6 -1 11 2 17 5 13 3 -3 4 -12 1 -19z m1500 -25 c4
-10 34 -58 67 -108 86 -129 158 -275 139 -282 -8 -3 -21 4 -31 18 -8 12 -24
31 -33 40 -10 10 -40 51 -68 92 -83 121 -134 257 -97 257 9 0 20 -8 23 -17z
m-4017 -26 c0 -2 -10 -12 -22 -23 l-23 -19 19 23 c18 21 26 27 26 19z m881
-191 c-23 -52 -41 -97 -41 -100 0 -3 -29 -66 -65 -141 -41 -84 -70 -135 -78
-132 -30 11 10 173 75 298 51 98 140 212 146 185 2 -8 -15 -57 -37 -110z
m3852 -1 c99 -202 128 -265 170 -370 25 -60 52 -134 62 -162 9 -29 21 -55 26
-58 12 -8 12 -55 -1 -55 -33 0 -239 374 -288 525 -58 177 -63 198 -57 223 6
25 7 25 25 6 10 -10 38 -59 63 -109z m-2216 -17 c-2 -13 -4 -3 -4 22 0 25 2
35 4 23 2 -13 2 -33 0 -45z m-2737 38 c0 -3 -15 -14 -32 -26 l-33 -22 28 26
c27 25 37 31 37 22z m6203 -46 c7 -26 5 -26 -22 11 -21 28 -21 30 -3 20 11 -6
22 -20 25 -31z m-713 -209 c49 -80 103 -159 119 -176 16 -18 36 -45 45 -61
l15 -29 1 26 c0 14 -9 59 -19 100 -30 116 -35 159 -19 159 20 0 142 -133 237
-260 47 -63 91 -122 98 -130 10 -13 33 -45 152 -211 119 -166 142 -198 157
-210 15 -12 16 -12 11 6 -8 27 -50 177 -88 310 -17 61 -40 133 -51 161 -16 40
-18 57 -10 80 l10 29 10 -25 c5 -14 21 -50 35 -80 14 -30 34 -82 45 -115 12
-33 46 -125 77 -205 58 -152 68 -186 114 -390 40 -174 40 -180 25 -180 -17 0
-138 154 -219 280 -67 104 -214 310 -347 488 -66 87 -95 113 -84 75 11 -41 17
-173 8 -173 -5 0 -22 17 -37 38 -36 47 -107 122 -117 122 -4 0 1 -23 12 -51
16 -39 18 -54 9 -65 -16 -19 -32 4 -107 153 -34 67 -76 145 -95 175 -51 81
-167 314 -167 336 0 11 6 22 13 25 22 8 74 -55 167 -202z m-5574 184 c-8 -8
-18 -15 -22 -15 -3 0 -1 7 6 15 7 8 17 15 22 15 5 0 3 -7 -6 -15z m690 -168
c-27 -50 -63 -117 -82 -148 -33 -56 -129 -254 -154 -319 -7 -19 -33 -77 -57
-128 -24 -51 -43 -97 -43 -103 0 -18 -39 -9 -45 12 -4 11 -4 67 0 125 6 82 5
104 -5 104 -8 0 -10 -3 -7 -7 4 -3 1 -13 -6 -22 -7 -9 -24 -44 -38 -78 -13
-35 -27 -63 -31 -63 -5 0 -8 -10 -8 -22 0 -13 -7 -32 -15 -42 -8 -11 -15 -26
-15 -32 0 -20 -99 -220 -115 -234 -27 -23 -29 18 -5 118 12 54 38 167 56 252
53 242 129 509 166 583 19 37 44 52 34 20 -31 -101 -76 -387 -62 -400 2 -2 48
66 102 151 55 86 104 156 110 156 7 0 8 -20 2 -66 -5 -36 -8 -84 -6 -107 l3
-42 25 40 c88 143 232 356 237 351 4 -3 -15 -48 -41 -99z m-796 90 c0 -2 -12
-14 -27 -28 l-28 -24 24 28 c23 25 31 32 31 24z m-75 -74 c-41 -30 -59 -34
-25 -5 19 16 37 28 40 25 3 -2 -4 -11 -15 -20z m3322 -25 c-3 -8 -6 -5 -6 6
-1 11 2 17 5 13 3 -3 4 -12 1 -19z m-3387 -21 c0 -2 -10 -12 -22 -23 l-23 -19
19 23 c18 21 26 27 26 19z m-51 -49 c-2 -2 -17 -14 -34 -28 l-30 -25 24 28
c14 15 29 27 34 27 6 0 8 -1 6 -2z m318 -85 c-3 -10 -5 -4 -5 12 0 17 2 24 5
18 2 -7 2 -21 0 -30z m-107 2 c0 -8 -92 -65 -104 -65 -6 0 14 15 44 34 64 39
60 37 60 31z m2372 -338 c-3 -273 20 -976 32 -996 3 -4 12 -72 21 -151 9 -80
23 -178 31 -219 7 -41 12 -76 10 -78 -14 -14 -524 85 -549 107 -9 8 13 102 78
345 19 72 42 159 50 195 8 36 35 139 60 230 25 91 57 208 71 260 21 78 194
620 198 620 0 0 -1 -141 -2 -313z m-2772 278 c-7 -8 -18 -15 -24 -15 -6 0 -2
7 8 15 25 19 32 19 16 0z m-60 -40 c-7 -8 -17 -15 -23 -15 -6 0 -2 7 9 15 25
19 30 19 14 0z m-40 -29 c0 -2 -7 -7 -16 -10 -8 -3 -12 -2 -9 4 6 10 25 14 25
6z m230 -30 c0 -3 -4 -8 -10 -11 -5 -3 -10 -1 -10 4 0 6 5 11 10 11 6 0 10 -2
10 -4z m-310 -20 c0 -2 -11 -11 -25 -20 -14 -9 -25 -13 -25 -8 0 5 10 14 23
20 27 13 27 13 27 8z m195 -36 c-3 -5 -12 -10 -18 -10 -7 0 -6 4 3 10 19 12
23 12 15 0z m452 -62 c-3 -7 -5 -2 -5 12 0 14 2 19 5 13 2 -7 2 -19 0 -25z
m-602 -8 c-3 -5 -12 -10 -18 -10 -7 0 -6 4 3 10 19 12 23 12 15 0z m3842 -22
c-3 -8 -6 -5 -6 6 -1 11 2 17 5 13 3 -3 4 -12 1 -19z m-3250 -20 c-3 -7 -5 -2
-5 12 0 14 2 19 5 13 2 -7 2 -19 0 -25z m6854 -41 c106 -100 218 -262 315
-457 67 -136 140 -317 131 -327 -14 -13 -37 10 -102 103 -231 325 -459 735
-407 734 4 0 32 -24 63 -53z m-3684 -19 c-2 -13 -4 -3 -4 22 0 25 2 35 4 23 2
-13 2 -33 0 -45z m1473 -2 c0 -27 229 -444 340 -618 30 -48 78 -124 105 -169
51 -82 76 -119 219 -314 91 -125 239 -303 361 -435 47 -51 85 -97 85 -102 0
-4 -10 -6 -22 -4 -13 3 -70 12 -128 21 -248 38 -356 57 -366 66 -18 15 -127
211 -188 339 -67 141 -84 185 -200 525 -83 245 -116 347 -193 605 -14 47 -28
91 -31 99 -3 9 -1 12 6 7 7 -4 12 -13 12 -20z m-1342 -81 c-3 -3 -9 2 -12 12
-6 14 -5 15 5 6 7 -7 10 -15 7 -18z m-1713 -157 c-23 -218 -30 -658 -13 -830
7 -76 11 -138 7 -138 -19 0 -305 100 -330 116 -11 6 33 157 117 399 112 327
129 372 169 465 20 47 41 100 47 118 18 64 19 23 3 -130z m912 110 c-3 -8 -6
-5 -6 6 -1 11 2 17 5 13 3 -3 4 -12 1 -19z m-150 -85 c-3 -10 -5 -4 -5 12 0
17 2 24 5 18 2 -7 2 -21 0 -30z m4928 -169 c33 -52 76 -121 96 -152 66 -106
138 -251 128 -258 -13 -8 -27 11 -90 126 -29 52 -76 131 -104 175 -95 147
-131 221 -103 210 7 -3 40 -48 73 -101z m-4088 64 c-3 -8 -6 -5 -6 6 -1 11 2
17 5 13 3 -3 4 -12 1 -19z m-3260 -10 c-3 -8 -6 -5 -6 6 -1 11 2 17 5 13 3 -3
4 -12 1 -19z m2550 -10 c-3 -8 -6 -5 -6 6 -1 11 2 17 5 13 3 -3 4 -12 1 -19z
m-3177 -53 c0 -5 -5 -3 -10 5 -5 8 -10 20 -10 25 0 6 5 3 10 -5 5 -8 10 -19
10 -25z m3167 -47 c-3 -7 -5 -2 -5 12 0 14 2 19 5 13 2 -7 2 -19 0 -25z m730
-35 c-3 -10 -5 -2 -5 17 0 19 2 27 5 18 2 -10 2 -26 0 -35z m247 21 c3 -8 2
-12 -4 -9 -6 3 -10 10 -10 16 0 14 7 11 14 -7z m-977 -36 c-3 -7 -5 -2 -5 12
0 14 2 19 5 13 2 -7 2 -19 0 -25z m740 -60 c-3 -8 -6 -5 -6 6 -1 11 2 17 5 13
3 -3 4 -12 1 -19z m-3330 -40 c-3 -7 -5 -2 -5 12 0 14 2 19 5 13 2 -7 2 -19 0
-25z m1720 -205 c-2 -37 -3 -9 -3 62 0 72 1 102 3 68 2 -34 2 -93 0 -130z
m1620 125 c-3 -7 -5 -2 -5 12 0 14 2 19 5 13 2 -7 2 -19 0 -25z m-3370 -50
c-3 -8 -6 -5 -6 6 -1 11 2 17 5 13 3 -3 4 -12 1 -19z m2620 -110 c-2 -24 -4
-5 -4 42 0 47 2 66 4 43 2 -24 2 -62 0 -85z m3599 -64 c33 -49 105 -152 159
-229 54 -77 122 -176 151 -220 29 -44 83 -120 118 -170 36 -49 78 -110 92
-135 15 -25 37 -55 48 -68 17 -19 18 -25 6 -32 -8 -5 -17 -7 -20 -5 -3 2 -76
11 -161 20 -255 26 -234 21 -246 58 -6 18 -28 93 -48 167 -41 150 -98 335
-186 604 -33 99 -59 182 -59 185 1 14 90 -93 146 -175z m-3689 124 c-3 -8 -6
-5 -6 6 -1 11 2 17 5 13 3 -3 4 -12 1 -19z m0 -50 c-3 -7 -5 -2 -5 12 0 14 2
19 5 13 2 -7 2 -19 0 -25z m-1650 -50 c-3 -8 -6 -5 -6 6 -1 11 2 17 5 13 3 -3
4 -12 1 -19z m-920 -10 c-3 -8 -6 -5 -6 6 -1 11 2 17 5 13 3 -3 4 -12 1 -19z
m-10 -40 c-3 -8 -6 -5 -6 6 -1 11 2 17 5 13 3 -3 4 -12 1 -19z m4844 5 c13
-16 12 -17 -3 -4 -10 7 -18 15 -18 17 0 8 8 3 21 -13z m-4611 -215 l-10 -33 5
34 c3 18 6 68 7 110 l2 76 3 -77 c2 -42 -1 -92 -7 -110z m2357 150 c-3 -7 -5
-2 -5 12 0 14 2 19 5 13 2 -7 2 -19 0 -25z m-2610 -30 c-3 -7 -5 -2 -5 12 0
14 2 19 5 13 2 -7 2 -19 0 -25z m1830 10 c-3 -8 -6 -5 -6 6 -1 11 2 17 5 13 3
-3 4 -12 1 -19z m-1621 -86 c-11 -10 -12 3 -7 53 l6 50 3 -49 c2 -26 1 -51 -2
-54z m2471 -9 c-2 -16 -4 -5 -4 22 0 28 2 40 4 28 2 -13 2 -35 0 -50z m3784
30 c13 -16 12 -17 -3 -4 -10 7 -18 15 -18 17 0 8 8 3 21 -13z m-6383 -54 c-3
-20 -5 -19 -9 9 -3 20 -2 29 4 23 5 -5 7 -19 5 -32z m115 -4 c-3 -9 -8 -14
-10 -11 -3 3 -2 9 2 15 9 16 15 13 8 -4z m744 -52 c-3 -10 -5 -2 -5 17 0 19 2
27 5 18 2 -10 2 -26 0 -35z m620 -2 c54 -21 135 -51 180 -67 88 -31 93 -37 93
-106 0 -35 -1 -36 -50 -48 -64 -15 -57 -28 13 -22 l54 4 7 -53 c3 -30 9 -64
12 -76 5 -18 1 -22 -28 -28 -18 -3 -71 -18 -118 -32 -82 -24 -86 -25 -142 -9
-87 24 -228 96 -228 116 0 9 3 20 7 24 4 3 8 14 9 23 17 116 73 313 89 313 3
0 49 -17 102 -39z m-1376 -4 c-10 -9 -11 -8 -5 6 3 10 9 15 12 12 3 -3 0 -11
-7 -18z m66 -19 c-3 -8 -6 -5 -6 6 -1 11 2 17 5 13 3 -3 4 -12 1 -19z m-80 -5
c-2 -5 -11 -24 -20 -44 -17 -37 -47 -70 -47 -51 0 5 6 15 14 21 8 7 22 27 31
46 9 19 18 35 21 35 3 0 3 -3 1 -7z m80 -55 c-3 -7 -5 -2 -5 12 0 14 2 19 5
13 2 -7 2 -19 0 -25z m0 -65 c-3 -10 -5 -4 -5 12 0 17 2 24 5 18 2 -7 2 -21 0
-30z m690 5 c-3 -8 -6 -5 -6 6 -1 11 2 17 5 13 3 -3 4 -12 1 -19z m-887 -28
c0 -5 -5 -10 -11 -10 -5 0 -7 5 -4 10 3 6 8 10 11 10 2 0 4 -4 4 -10z m2155
-44 c6 -3 -24 -2 -65 1 -76 6 -97 13 -86 31 5 8 110 -15 151 -32z m135 -42
c134 -14 157 -19 175 -38 12 -13 44 -27 78 -35 51 -11 60 -17 72 -44 7 -18 10
-33 5 -35 -4 -2 -55 6 -112 17 -151 29 -327 44 -439 39 -55 -3 -99 -1 -99 3 0
7 11 55 25 115 2 7 25 8 72 3 37 -5 138 -16 223 -25z m-443 -46 c-3 -8 -6 -5
-6 6 -1 11 2 17 5 13 3 -3 4 -12 1 -19z m738 2 c3 -5 -1 -10 -9 -10 -9 0 -16
5 -16 10 0 6 4 10 9 10 6 0 13 -4 16 -10z m-1688 -52 c-3 -8 -6 -5 -6 6 -1 11
2 17 5 13 3 -3 4 -12 1 -19z m-692 2 c3 -5 1 -10 -4 -10 -6 0 -11 5 -11 10 0
6 2 10 4 10 3 0 8 -4 11 -10z m6105 -25 c0 -5 -5 -3 -10 5 -5 8 -10 20 -10 25
0 6 5 3 10 -5 5 -8 10 -19 10 -25z m-6102 -67 c1 -36 7 -65 13 -67 8 -2 8 -5
0 -10 -18 -11 -2 -68 20 -74 14 -4 19 0 19 14 0 10 5 19 10 19 16 0 12 -37 -5
-44 -8 -3 -15 -15 -15 -26 0 -25 17 -27 23 -2 2 9 4 -64 5 -164 2 -180 17
-406 29 -428 4 -7 2 -8 -5 -1 -11 10 -63 281 -81 420 -5 44 -12 134 -16 200
-3 66 -8 146 -11 179 -4 35 -3 56 3 53 5 -3 10 -34 11 -69z m2427 -8 c3 -5 -1
-10 -9 -10 -8 0 -18 5 -21 10 -3 6 1 10 9 10 8 0 18 -4 21 -10z m-716 -137
c-1 -65 -3 -71 -8 -36 -7 39 -3 113 5 113 2 0 3 -35 3 -77z m3771 47 c316 -26
343 -30 370 -56 29 -29 23 -30 -80 -9 -94 19 -410 32 -410 18 0 -12 80 -23
175 -23 39 0 131 -9 205 -20 74 -11 141 -20 149 -20 14 0 184 -160 177 -167
-2 -2 -31 5 -64 16 -91 31 -446 100 -514 101 -16 0 -28 -4 -28 -10 0 -5 12
-10 28 -10 39 0 73 -11 66 -21 -3 -5 -27 -9 -53 -9 -39 0 -52 5 -72 28 -36 40
-82 101 -112 150 l-27 42 37 0 c21 0 90 -5 153 -10z m1010 -80 c80 -6 152 -13
162 -16 9 -3 36 -30 59 -62 24 -31 87 -109 139 -172 189 -226 269 -335 257
-347 -4 -3 -50 -8 -102 -11 -109 -5 -105 -7 -257 94 -45 30 -117 71 -158 90
-41 20 -127 61 -190 92 l-115 57 -22 69 c-13 38 -21 72 -18 75 19 18 522 -194
569 -240 6 -5 21 -9 35 -9 43 0 16 19 -144 104 -62 33 -282 120 -392 154 -81
26 -82 26 -92 69 -20 77 -20 77 57 70 37 -4 132 -11 212 -17z m-6580 -46 c0
-8 -4 -12 -10 -9 -5 3 -10 13 -10 21 0 8 5 12 10 9 6 -3 10 -13 10 -21z m45
-52 c3 -14 4 -27 0 -30 -3 -3 -5 2 -5 10 0 9 -10 23 -22 31 l-23 15 22 -1 c14
-1 24 -10 28 -25z m23 -147 l-1 -40 -8 45 c-4 25 -7 56 -7 70 0 23 1 22 8 -5
4 -16 8 -48 8 -70z m5137 46 c3 -5 1 -12 -5 -16 -5 -3 -10 1 -10 9 0 18 6 21
15 7z m58 2 c-7 -2 -21 -2 -30 0 -10 3 -4 5 12 5 17 0 24 -2 18 -5z m1005 -58
c-3 -3 -9 2 -12 12 -6 14 -5 15 5 6 7 -7 10 -15 7 -18z m1583 -675 c43 -85 95
-184 114 -219 19 -35 35 -69 35 -75 -1 -11 -29 -69 -72 -146 -59 -106 -130
-226 -137 -233 -4 -4 -11 117 -14 270 -6 248 -12 353 -32 543 -6 52 -5 54 10
35 9 -11 52 -90 96 -175z m1036 -2 c-3 -8 -6 -5 -6 6 -1 11 2 17 5 13 3 -3 4
-12 1 -19z m20 -310 c2 -27 0 -29 -7 -13 -11 26 -12 45 -2 45 4 0 8 -15 9 -32z
m-876 -65 c13 -16 12 -17 -3 -4 -10 7 -18 15 -18 17 0 8 8 3 21 -13z m-8341
-168 c7 -8 18 -15 25 -15 7 0 48 -18 91 -40 43 -22 84 -40 92 -40 7 0 11 -3 9
-7 -3 -5 7 -8 21 -9 15 -1 61 -6 102 -12 41 -6 140 -12 219 -12 144 0 193 -8
71 -11 -36 -1 -69 -4 -74 -7 -5 -3 -21 -7 -35 -8 -125 -13 -145 -14 -131 -5 8
5 18 7 24 4 5 -3 6 -1 3 5 -8 12 -47 4 -47 -10 0 -5 -4 -6 -10 -3 -5 3 -10 1
-10 -4 0 -6 -9 -11 -20 -11 -11 0 -20 -2 -20 -4 0 -2 -3 -11 -6 -20 -5 -13 1
-16 25 -16 17 0 31 -4 31 -9 0 -6 19 -14 43 -20 l42 -10 -40 3 c-58 5 -208 66
-235 96 -3 3 -18 11 -33 19 -34 18 -184 156 -198 184 -11 20 -11 20 18 -1 16
-12 36 -28 43 -37z m350 -211 c0 -2 -7 -4 -15 -4 -8 0 -15 4 -15 10 0 5 7 7
15 4 8 -4 15 -8 15 -10z m547 -10 c-3 -3 -12 -4 -19 -1 -8 3 -5 6 6 6 11 1 17
-2 13 -5z m-272 -54 c-16 -4 -55 -7 -85 -7 l-55 0 60 7 c33 4 71 7 85 7 22 1
21 0 -5 -7z m278 3 c-7 -2 -19 -2 -25 0 -7 3 -2 5 12 5 14 0 19 -2 13 -5z
m-475 -42 c1 -4 20 -5 42 -3 34 4 39 2 37 -17 -1 -12 -4 -21 -7 -21 -16 0
-107 35 -125 47 -18 14 -17 14 15 8 19 -4 36 -10 38 -14z m126 -50 c4 -5 -3
-7 -14 -4 -23 6 -26 13 -6 13 8 0 17 -4 20 -9z m43 -7 c-3 -3 -12 -4 -19 -1
-8 3 -5 6 6 6 11 1 17 -2 13 -5z m181 -21 c-15 -2 -42 -2 -60 0 -18 2 -6 4 27
4 33 0 48 -2 33 -4z m65 0 c-7 -2 -19 -2 -25 0 -7 3 -2 5 12 5 14 0 19 -2 13
-5z m120 0 c-7 -2 -21 -2 -30 0 -10 3 -4 5 12 5 17 0 24 -2 18 -5z m6907 -206
c0 -2 -10 -12 -22 -23 l-23 -19 19 23 c18 21 26 27 26 19z m-220 -51 c0 -2 -8
-10 -17 -17 -16 -13 -17 -12 -4 4 13 16 21 21 21 13z m129 -19 c-2 -1 -13 -9
-24 -17 -19 -14 -19 -14 -6 3 7 9 18 17 24 17 6 0 8 -1 6 -3z m-7179 -90 c0
-2 -10 -12 -22 -23 l-23 -19 19 23 c18 21 26 27 26 19z m6910 -10 c0 -2 -10
-12 -22 -23 l-23 -19 19 23 c18 21 26 27 26 19z m-60 -50 c0 -2 -10 -12 -22
-23 l-23 -19 19 23 c18 21 26 27 26 19z m-6942 -56 c-7 -12 -16 -21 -21 -21
-4 0 0 11 9 25 20 30 31 26 12 -4z m6852 -25 c0 -2 -7 -7 -16 -10 -8 -3 -12
-2 -9 4 6 10 25 14 25 6z m-6880 -10 c0 -2 -8 -10 -17 -17 -16 -13 -17 -12 -4
4 13 16 21 21 21 13z m6835 -46 c-3 -5 -12 -10 -18 -10 -7 0 -6 4 3 10 19 12
23 12 15 0z m-7477 -32 c21 -13 47 -29 57 -35 70 -44 193 -107 270 -138 50
-21 91 -38 93 -40 1 -1 -2 -13 -7 -26 l-10 -24 0 27 c-1 22 -7 28 -33 33 -18
4 -43 13 -55 21 -12 8 -24 10 -28 5 -3 -5 -1 -12 5 -16 15 -9 12 -28 -3 -22
-26 10 -39 -7 -27 -37 6 -17 6 -25 0 -21 -6 3 -10 1 -10 -6 0 -6 8 -9 20 -6
11 3 18 0 17 -7 -1 -6 5 -10 12 -8 8 2 25 -2 38 -9 18 -9 20 -15 11 -22 -9 -6
-4 -7 14 -4 19 3 25 0 21 -10 -3 -7 -9 -13 -14 -13 -12 0 -109 54 -169 93 -56
37 -160 137 -160 154 0 7 -9 17 -20 23 -11 6 -23 22 -26 35 -3 14 -9 25 -13
25 -4 0 -13 11 -19 25 -14 31 -11 31 36 3z m585 -3 c-3 -9 -8 -14 -10 -11 -3
3 -2 9 2 15 9 16 15 13 8 -4z m6827 3 c-14 -7 -40 -20 -57 -31 -18 -10 -33
-16 -33 -13 0 9 84 56 100 55 8 0 4 -5 -10 -11z m-6868 -77 c-15 -27 -28 -48
-30 -47 -5 6 41 96 49 96 4 0 -5 -22 -19 -49z m1135 17 c-3 -8 -6 -5 -6 6 -1
11 2 17 5 13 3 -3 4 -12 1 -19z m-1094 -93 c-3 -9 -8 -14 -10 -11 -3 3 -2 9 2
15 9 16 15 13 8 -4z m-270 -121 c-4 -12 -8 -13 -14 -3 -9 15 -2 32 11 24 5 -3
6 -13 3 -21z m77 -34 c0 -5 -5 -10 -11 -10 -5 0 -7 5 -4 10 3 6 8 10 11 10 2
0 4 -4 4 -10z m55 -114 c-2 -6 -6 -24 -9 -39 -4 -17 -11 -25 -18 -21 -7 5 -9
-1 -5 -17 3 -13 2 -31 -3 -39 -8 -12 -10 -9 -10 11 0 15 3 41 7 60 5 29 7 30
15 14 6 -16 7 -13 5 11 -2 19 2 31 9 31 7 0 11 -5 9 -11z m7368 0 c-17 -29
-85 -106 -95 -106 -6 0 14 27 43 59 56 62 65 70 52 47z m-7453 -241 c0 -47 -3
-85 -7 -85 -5 0 -7 34 -5 75 3 51 0 75 -8 75 -6 0 -8 5 -5 10 17 27 25 2 25
-75z m-46 53 c-2 -7 -24 -26 -47 -43 -23 -16 -71 -57 -107 -90 -36 -33 -49
-42 -30 -21 28 31 179 164 187 166 1 0 0 -6 -3 -12z m-234 -211 c0 -2 -10 -12
-22 -23 l-23 -19 19 23 c18 21 26 27 26 19z m-69 -80 c-10 -9 -11 -8 -5 6 3
10 9 15 12 12 3 -3 0 -11 -7 -18z m79 -41 c0 -2 -8 -10 -17 -17 -16 -13 -17
-12 -4 4 13 16 21 21 21 13z m6400 -17 l75 -7 -87 1 c-59 1 -91 6 -100 16 -11
11 -9 12 12 6 13 -4 58 -11 100 -16z m633 -116 c-7 -2 -19 -2 -25 0 -7 3 -2 5
12 5 14 0 19 -2 13 -5z m-6506 -86 c1 -34 8 -85 16 -113 l13 -50 -60 -107 -61
-107 -40 6 c-66 11 -111 6 -171 -21 -94 -42 -94 -39 -12 86 86 131 284 369
307 369 3 0 7 -28 8 -63z m-233 -132 c-14 -19 -29 -35 -31 -35 -5 0 7 18 36
53 26 31 23 18 -5 -18z m277 -88 c-10 -9 -11 -8 -5 6 3 10 9 15 12 12 3 -3 0
-11 -7 -18z m7004 -57 c-8 -16 -28 -87 -44 -157 l-28 -128 -66 -3 c-54 -2 -67
0 -67 12 0 27 197 306 216 306 2 0 -2 -13 -11 -30z m-6928 -125 c0 -8 -4 -12
-9 -9 -5 3 -6 10 -3 15 9 13 12 11 12 -6z m2111 -12 c-27 -2 -69 -2 -95 0 -27
2 -5 3 47 3 52 0 74 -1 48 -3z m-2851 -50 c-3 -10 -5 -4 -5 12 0 17 2 24 5 18
2 -7 2 -21 0 -30z m1358 -568 c20 -8 59 -36 88 -63 28 -27 67 -54 86 -60 18
-7 61 -40 95 -74 33 -35 96 -89 139 -121 48 -36 82 -70 90 -90 8 -18 32 -48
54 -68 l40 -37 -55 -36 c-30 -20 -48 -36 -41 -36 17 0 59 27 75 49 6 8 18 12
28 8 11 -5 15 -3 10 5 -5 8 -1 9 12 5 13 -4 11 -1 -6 11 -38 26 -110 94 -110
103 0 12 23 1 108 -49 41 -24 104 -57 140 -73 37 -17 81 -37 97 -46 36 -19
193 -73 212 -73 24 0 13 15 -33 44 -103 65 -248 225 -304 336 l-29 58 34 6
c39 8 94 0 143 -21 25 -10 42 -11 65 -4 18 5 79 11 138 14 76 3 116 10 145 24
l41 20 34 -51 c20 -29 59 -67 92 -89 l57 -38 0 -68 c0 -56 -5 -79 -31 -130
-18 -37 -41 -67 -55 -73 -13 -6 -24 -17 -24 -23 0 -14 -31 -25 -72 -25 -14 0
-33 -3 -42 -6 -27 -10 -7 -24 34 -24 51 0 70 -8 70 -30 0 -31 27 -42 126 -50
62 -5 100 -13 105 -22 14 -21 10 -76 -8 -116 -9 -20 -17 -41 -17 -45 -2 -20
-168 -77 -267 -91 -57 -9 -151 -25 -209 -36 -119 -22 -360 -27 -470 -9 -36 6
-108 10 -160 9 -316 -7 -368 -1 -576 59 -76 23 -172 50 -211 61 -40 12 -85 32
-100 45 -39 34 -18 31 93 -14 83 -33 101 -37 122 -28 l25 12 -29 6 c-36 8
-242 107 -250 121 -13 21 33 50 82 53 27 1 72 6 101 10 l51 8 47 -49 c44 -45
43 -39 -2 24 -18 26 -66 181 -78 252 l-7 44 23 -17 c72 -50 176 -107 197 -107
21 0 23 2 12 15 -7 8 -35 27 -63 41 -59 29 -147 92 -147 104 0 24 17 41 66 65
30 15 54 30 54 33 0 4 -14 27 -30 52 -44 65 -61 107 -70 175 -6 46 -4 67 8 90
l15 30 27 -80 c33 -102 93 -215 147 -282 24 -29 43 -54 43 -56 0 -2 -16 -1
-35 1 -23 3 -35 0 -35 -8 0 -7 14 -11 38 -9 40 3 46 0 179 -113 40 -35 63 -46
63 -33 0 3 -18 29 -41 57 -52 67 -165 295 -178 361 -6 29 -13 80 -17 115 -7
69 -5 71 51 47z m-16 -359 c-3 -3 -11 5 -18 17 -13 21 -12 21 5 5 10 -10 16
-20 13 -22z m-750 -521 c9 -28 40 -81 69 -118 70 -91 90 -132 107 -222 16 -84
24 -103 70 -160 40 -51 46 -63 80 -160 15 -44 32 -84 36 -89 5 -6 9 -14 9 -18
0 -4 -105 -8 -232 -8 l-233 0 -36 38 c-36 36 -62 81 -113 192 -26 55 -49 97
-78 143 -9 13 -21 42 -27 63 -13 48 -34 79 -48 71 -22 -14 40 -175 86 -226 18
-21 41 -66 58 -119 18 -56 38 -97 59 -119 17 -18 29 -35 26 -38 -3 -3 -119 -5
-258 -5 l-254 1 -27 47 c-14 26 -49 80 -76 119 -48 71 -76 130 -77 166 0 24
83 23 153 -3 51 -19 87 -19 87 1 0 5 5 8 11 7 7 -2 19 25 28 62 27 104 66 166
124 196 25 13 33 12 101 -15 41 -16 92 -33 113 -37 21 -4 55 -13 75 -20 l37
-13 40 123 c22 68 43 140 47 160 8 48 22 42 43 -19z m426 -140 c39 -13 82 -25
98 -25 15 0 76 -15 135 -34 144 -45 283 -62 415 -50 71 7 134 6 212 -3 134
-15 385 -16 480 -3 39 6 106 19 150 29 44 11 120 25 168 32 l89 12 21 -25 c12
-14 43 -33 70 -42 70 -26 79 -54 55 -171 -14 -71 -51 -112 -126 -139 -46 -16
-52 -21 -52 -47 0 -31 61 -109 85 -109 15 0 47 -45 38 -54 -4 -3 -386 -6 -849
-6 l-843 1 -40 72 c-22 39 -38 73 -36 76 2 2 32 -4 67 -13 35 -9 106 -20 158
-25 123 -12 383 -9 390 4 5 10 -24 13 -300 30 -63 4 -151 15 -195 26 -44 10
-116 23 -160 29 -49 6 -85 16 -95 26 -11 12 -12 18 -2 21 6 3 12 13 12 23 0
10 22 45 50 77 27 32 50 63 50 70 0 7 -12 27 -28 45 -45 54 -100 141 -107 171
-9 34 -1 34 90 2z m-1321 -379 c-1 -9 3 -16 10 -17 14 0 111 -135 121 -169 4
-14 14 -33 23 -42 13 -16 13 -18 -2 -24 -23 -9 -62 3 -93 29 -56 46 -153 141
-153 149 0 5 16 26 35 46 19 20 35 41 35 45 0 5 6 7 13 4 6 -2 11 -12 11 -21z
m8444 -223 l-3 -28 -102 -3 c-115 -3 -130 7 -60 38 27 13 65 20 105 20 63 0
63 0 60 -27z"/>
<path d="M2691 5894 c-23 -20 -40 -39 -37 -41 7 -7 106 57 106 68 0 19 -28 8
-69 -27z"/>
<path d="M2867 5842 c-30 -32 -34 -42 -13 -42 13 0 56 49 56 64 0 13 -18 4
-43 -22z"/>
<path d="M6445 5430 c-38 -40 -11 -40 35 0 30 25 32 29 14 30 -11 0 -33 -13
-49 -30z"/>
<path d="M6570 5381 c-19 -16 -33 -31 -30 -34 7 -7 90 45 90 56 0 15 -27 6
-60 -22z"/>
<path d="M7690 5232 c0 -19 26 -62 38 -62 18 0 15 35 -6 53 -20 18 -32 22 -32
9z"/>
<path d="M3580 4470 c-22 -14 -18 -87 8 -140 32 -66 162 -203 187 -199 16 4 9
15 -45 75 -78 84 -120 159 -129 225 -5 40 -9 47 -21 39z"/>
<path d="M3980 4291 c0 -11 89 -91 101 -91 30 0 -18 63 -68 89 -26 13 -33 14
-33 2z"/>
<path d="M3893 3109 c-18 -5 -35 -13 -38 -18 -9 -16 28 -22 65 -11 69 20 360
5 545 -27 132 -23 185 -27 162 -12 -85 52 -618 102 -734 68z"/>
<path d="M4760 3003 c0 -5 47 -30 103 -58 56 -27 121 -64 143 -81 69 -53 104
-67 104 -41 -1 16 -105 86 -214 141 -82 42 -136 57 -136 39z"/>
<path d="M1016 6233 c-6 -14 -5 -15 5 -6 7 7 10 15 7 18 -3 3 -9 -2 -12 -12z"/>
<path d="M650 4806 c0 -2 6 -9 14 -15 11 -9 16 -9 22 0 4 8 3 9 -4 5 -7 -4
-12 -2 -12 3 0 6 -4 11 -10 11 -5 0 -10 -2 -10 -4z"/>
<path d="M712 4772 c-7 -2 -12 -8 -12 -14 0 -6 7 -8 15 -4 8 3 14 2 13 -2 -4
-19 17 -41 43 -47 16 -4 34 -14 39 -23 9 -14 10 -14 5 5 -4 15 -1 23 12 27 10
3 1 4 -19 3 -37 -3 -51 6 -25 16 7 3 5 6 -5 6 -10 1 -26 9 -36 19 -10 10 -24
16 -30 14z"/>
<path d="M415 3850 c3 -5 8 -10 11 -10 2 0 4 5 4 10 0 6 -5 10 -11 10 -5 0 -7
-4 -4 -10z"/>
<path d="M440 3819 c0 -5 5 -7 10 -4 6 3 10 8 10 11 0 2 -4 4 -10 4 -5 0 -10
-5 -10 -11z"/>
<path d="M484 3805 c11 -8 23 -15 28 -15 4 0 8 -5 8 -11 0 -5 -4 -7 -10 -4 -5
3 -10 1 -10 -4 0 -6 4 -11 10 -11 5 0 18 -10 29 -21 19 -20 21 -20 37 -5 15
16 15 18 -2 31 -26 20 -39 18 -23 -2 13 -16 12 -17 -3 -4 -10 7 -18 19 -18 26
0 6 -11 17 -25 23 -35 16 -44 14 -21 -3z"/>
<path d="M630 3719 c0 -6 -8 -9 -18 -7 -20 6 -37 -10 -37 -33 0 -22 25 -50 37
-43 5 3 1 12 -9 19 -16 12 -16 13 9 11 18 -2 33 4 46 19 20 23 20 23 -4 34
-17 8 -24 8 -24 0z"/>
<path d="M630 3631 c0 -5 5 -13 10 -16 6 -3 10 -2 10 4 0 5 -4 13 -10 16 -5 3
-10 2 -10 -4z"/>
<path d="M725 3560 c3 -5 11 -10 16 -10 6 0 7 5 4 10 -3 6 -11 10 -16 10 -6 0
-7 -4 -4 -10z"/>
<path d="M2620 1421 c0 -5 9 -7 20 -4 11 3 20 7 20 9 0 2 -9 4 -20 4 -11 0
-20 -4 -20 -9z"/>
<path d="M2518 1413 c7 -3 16 -2 19 1 4 3 -2 6 -13 5 -11 0 -14 -3 -6 -6z"/>
<path d="M2563 1413 c9 -2 25 -2 35 0 9 3 1 5 -18 5 -19 0 -27 -2 -17 -5z"/>
<path d="M1970 1342 c-1 -39 111 -182 143 -182 6 0 -13 22 -41 49 -27 26 -62
70 -76 97 -14 27 -25 43 -26 36z"/>
<path d="M2906 1322 c53 -47 70 -59 90 -65 10 -3 46 -15 78 -26 68 -24 66 -24
66 -12 0 5 -17 12 -37 16 -55 9 -134 47 -175 84 -20 17 -40 31 -44 31 -5 0 5
-13 22 -28z"/>
<path d="M2646 1248 c56 -66 147 -123 214 -133 32 -5 31 -4 -11 12 -75 29
-156 80 -179 113 -12 16 -26 30 -32 30 -6 0 -3 -10 8 -22z"/>
<path d="M2918 1238 c-16 -5 -28 -14 -28 -19 0 -12 6 -11 40 6 47 24 39 32
-12 13z"/>
<path d="M1560 1227 c0 -3 12 -12 26 -22 15 -9 23 -12 20 -6 -7 11 -46 35 -46
28z"/>
<path d="M1987 1200 c-37 -23 -43 -30 -20 -24 21 6 58 32 52 38 -2 2 -16 -4
-32 -14z"/>
<path d="M2416 1129 c6 -11 66 -39 81 -39 10 0 -69 49 -80 50 -5 0 -5 -5 -1
-11z"/>
<path d="M2581 1074 c-19 -8 -32 -17 -29 -19 5 -6 78 22 78 30 0 8 -13 5 -49
-11z"/>
<path d="M1870 1021 c0 -7 19 -21 43 -31 32 -14 88 -21 232 -30 246 -15 649
-10 667 8 11 11 -28 12 -222 7 -129 -3 -266 -6 -305 -7 -63 -1 -110 6 -300 42
-33 7 -72 14 -87 17 -18 3 -28 1 -28 -6z"/>
<path d="M1745 940 c3 -5 8 -10 11 -10 2 0 4 5 4 10 0 6 -5 10 -11 10 -5 0 -7
-4 -4 -10z"/>
<path d="M1793 848 c1 -15 6 -23 11 -18 4 4 4 16 -2 26 -9 16 -10 14 -9 -8z"/>
<path d="M2616 845 c4 -8 8 -15 10 -15 2 0 4 7 4 15 0 8 -4 15 -10 15 -5 0 -7
-7 -4 -15z"/>
<path d="M3010 855 c0 -9 84 -45 104 -45 19 1 20 1 3 11 -9 5 -22 7 -27 4 -6
-3 -10 -2 -10 3 0 6 -14 15 -31 21 -36 12 -39 13 -39 6z"/>
<path d="M2320 826 c0 -2 18 -19 40 -36 22 -17 40 -28 40 -23 0 8 -80 68 -80
59z"/>
<path d="M2656 810 c12 -12 27 -21 33 -19 7 3 -3 13 -21 23 l-33 19 21 -23z"/>
<path d="M1760 810 c-9 -6 -10 -10 -3 -10 6 0 15 5 18 10 8 12 4 12 -15 0z"/>
<path d="M3145 810 c-3 -4 9 -10 26 -14 39 -7 94 -8 87 -1 -10 10 -108 22
-113 15z"/>
<path d="M1836 795 c4 -8 11 -15 16 -15 6 0 5 6 -2 15 -7 8 -14 15 -16 15 -2
0 -1 -7 2 -15z"/>
<path d="M3070 787 c-8 -7 -24 -24 -35 -37 -12 -15 -4 -11 18 9 33 31 42 42
35 41 -2 0 -10 -6 -18 -13z"/>
<path d="M1870 760 c0 -5 5 -10 11 -10 5 0 7 5 4 10 -3 6 -8 10 -11 10 -2 0
-4 -4 -4 -10z"/>
<path d="M2115 738 c11 -6 37 -24 58 -41 21 -16 40 -27 43 -24 7 6 -93 77
-109 77 -6 0 -3 -6 8 -12z"/>
<path d="M2420 739 c-13 -9 -12 -10 3 -5 10 3 32 -1 49 -10 16 -8 32 -13 35
-10 4 3 -10 13 -30 21 -43 18 -38 17 -57 4z"/>
<path d="M2710 737 c-8 -7 -22 -21 -30 -32 -11 -15 -7 -14 15 5 17 14 34 28
40 32 5 5 5 8 0 8 -6 0 -17 -6 -25 -13z"/>
<path d="M1902 724 c10 -10 20 -15 24 -12 3 4 -5 12 -18 18 -22 12 -22 12 -6
-6z"/>
<path d="M2808 733 c7 -3 16 -2 19 1 4 3 -2 6 -13 5 -11 0 -14 -3 -6 -6z"/>
<path d="M2848 723 c6 -2 18 -2 25 0 6 3 1 5 -13 5 -14 0 -19 -2 -12 -5z"/>
<path d="M2341 689 c-56 -37 -65 -46 -26 -26 44 24 91 57 80 57 -5 0 -30 -14
-54 -31z"/>
<path d="M853 492 c-2 -37 -2 -37 9 -9 6 16 6 33 2 37 -5 5 -10 -7 -11 -28z"/>
<path d="M381 284 c0 -11 3 -14 6 -6 3 7 2 16 -1 19 -3 4 -6 -2 -5 -13z"/>
<path d="M517 293 c-4 -8 -12 -39 -22 -90 -2 -13 0 -23 6 -23 5 0 9 6 10 13 0
6 4 33 8 60 8 45 7 55 -2 40z"/>
<path d="M858 293 c7 -3 16 -2 19 1 4 3 -2 6 -13 5 -11 0 -14 -3 -6 -6z"/>
<path d="M895 295 c24 -8 125 -11 125 -3 0 4 -30 8 -67 7 -38 0 -63 -2 -58 -4z"/>
<path d="M986 224 c-5 -14 -4 -15 9 -4 17 14 19 20 6 20 -5 0 -12 -7 -15 -16z"/>
<path d="M484 134 c-4 -14 -2 -30 3 -35 5 -5 9 5 9 26 0 42 -3 44 -12 9z"/>
<path d="M447 99 c7 -7 15 -10 18 -7 3 3 -2 9 -12 12 -14 6 -15 5 -6 -5z"/>
<path d="M480 64 c0 -8 5 -12 10 -9 6 3 10 10 10 16 0 5 -4 9 -10 9 -5 0 -10
-7 -10 -16z"/>
<path d="M1083 63 c9 -2 23 -2 30 0 6 3 -1 5 -18 5 -16 0 -22 -2 -12 -5z"/>
<path d="M3120 541 c0 -6 5 -13 10 -16 6 -3 10 1 10 9 0 9 -4 16 -10 16 -5 0
-10 -4 -10 -9z"/>
<path d="M3180 470 c33 -26 50 -26 20 0 -13 11 -28 20 -34 20 -6 0 0 -9 14
-20z"/>
<path d="M3226 467 c3 -10 9 -15 12 -12 3 3 0 11 -7 18 -10 9 -11 8 -5 -6z"/>
<path d="M1670 466 c0 -2 8 -10 18 -17 15 -13 16 -12 3 4 -13 16 -21 21 -21
13z"/>
<path d="M2640 422 c0 -12 19 -26 26 -19 2 2 -2 10 -11 17 -9 8 -15 8 -15 2z"/>
<path d="M3151 348 c-14 -23 -14 -23 8 -4 22 20 25 26 13 26 -4 0 -13 -10 -21
-22z"/>
<path d="M2315 304 c-18 -16 -22 -22 -9 -15 18 9 53 42 43 41 -2 -1 -17 -12
-34 -26z"/>
<path d="M2683 318 c-17 -23 -25 -44 -9 -24 9 11 22 23 28 28 9 5 9 8 2 8 -6
0 -16 -6 -21 -12z"/>
<path d="M2662 185 c-70 -11 -103 -27 -89 -41 8 -9 138 12 172 28 14 6 25 15
25 20 0 10 -14 9 -108 -7z"/>
<path d="M2220 130 c0 -13 137 -13 145 0 4 6 -22 10 -69 10 -44 0 -76 -4 -76
-10z"/>
<path d="M644 6914 c3 -8 6 -18 6 -20 0 -2 7 -4 15 -4 18 0 9 26 -12 34 -11 5
-13 2 -9 -10z"/>
<path d="M701 6874 c0 -11 3 -14 6 -6 3 7 2 16 -1 19 -3 4 -6 -2 -5 -13z"/>
<path d="M730 6750 c-8 -26 -7 -41 2 -32 6 6 8 16 5 24 -3 7 -6 11 -7 8z"/>
<path d="M190 6145 c-7 -9 -11 -18 -8 -20 3 -3 11 1 18 10 7 9 11 18 8 20 -3
3 -11 -1 -18 -10z"/>
<path d="M155 6100 c-3 -5 -1 -10 4 -10 6 0 11 5 11 10 0 6 -2 10 -4 10 -3 0
-8 -4 -11 -10z"/>
</g>
</svg>
